<svg width="120" height="34" viewBox="0 0 120 34" fill="none" xmlns="http://www.w3.org/2000/svg">
<path fill-rule="evenodd" clip-rule="evenodd" d="M34.1559 25.2476H39.594V13.7096C39.594 12.9313 39.526 12.1358 39.39 11.3231C39.2541 10.5104 38.9879 9.77781 38.5913 9.12536C38.1948 8.47291 37.6283 7.93494 36.8919 7.51142C36.1555 7.0879 35.1869 6.87614 33.986 6.87614C32.6944 6.87614 31.5105 7.16802 30.4342 7.75179C29.3579 8.33556 28.4913 9.16542 27.8342 10.2414V0.179993H22.3961V25.2476H27.8342V14.9115C27.9928 14.4308 28.2194 13.9958 28.5139 13.6066C28.8085 13.2175 29.1314 12.8798 29.4826 12.5936C29.8338 12.3075 30.1963 12.09 30.5702 11.9412C30.9441 11.7924 31.2896 11.718 31.6068 11.718C32.3999 11.718 33.023 11.9927 33.4762 12.5421C33.9293 13.0915 34.1559 13.95 34.1559 15.1176V25.2476ZM15.4645 7.49426C15.8724 7.74608 16.1103 7.91778 16.1782 8.00935L18.6254 3.33922C18.0816 3.01871 17.4868 2.69822 16.841 2.37772C16.1952 2.05722 15.4985 1.77106 14.7508 1.51924C14.003 1.26741 13.2213 1.06138 12.4056 0.90113C11.5899 0.740879 10.7628 0.660755 9.92447 0.660755C8.72356 0.660755 7.58498 0.83245 6.50869 1.17584C5.4324 1.51924 4.48641 2.0286 3.67069 2.70394C2.85498 3.37928 2.20922 4.20914 1.73338 5.19353C1.25755 6.17793 1.01964 7.31111 1.01964 8.59312C1.01964 9.50883 1.14992 10.3101 1.4105 10.9969C1.67107 11.6837 2.0676 12.2903 2.60008 12.8168C3.13256 13.3434 3.80664 13.807 4.62236 14.2076C5.43807 14.6082 6.40105 14.9802 7.51133 15.3236C7.84668 15.4243 8.17206 15.5214 8.48746 15.6148L10.1884 16.1148C10.7564 16.2913 11.2576 16.4797 11.6918 16.68C12.213 16.9204 12.6208 17.1894 12.9154 17.487C13.21 17.7846 13.3573 18.1623 13.3573 18.6202C13.3573 19.8335 12.3716 20.4402 10.4003 20.4402C9.47129 20.4402 8.55363 20.3142 7.64728 20.0624C6.74093 19.8106 5.91957 19.5244 5.18316 19.2039C4.44675 18.8834 3.82931 18.5629 3.33082 18.2424C2.83232 17.9219 2.53776 17.7045 2.44713 17.59L0 22.5005C0.70242 22.9813 1.46714 23.4048 2.29418 23.7711C3.12123 24.1373 3.97658 24.4521 4.86027 24.7154C5.74396 24.9787 6.6503 25.179 7.57931 25.3163C8.50831 25.4537 9.41465 25.5224 10.2983 25.5224C11.4539 25.5224 12.5755 25.3907 13.6631 25.1275C14.7508 24.8642 15.7137 24.4407 16.5521 23.8569C17.3905 23.2731 18.0646 22.5062 18.5744 21.5562C19.0842 20.6061 19.3391 19.4443 19.3391 18.0707C19.3391 16.949 19.1635 15.9875 18.8123 15.1862C18.4611 14.385 17.9626 13.7039 17.3168 13.1431C16.6711 12.5822 15.8837 12.1129 14.9547 11.7352C14.0257 11.3574 12.9834 11.0083 11.8278 10.6878C11.5483 10.6115 11.2802 10.5377 11.0234 10.4665L9.61858 10.0697C8.98414 9.88656 8.45733 9.68625 8.03814 9.46877C7.61896 9.25128 7.30174 9.00519 7.08648 8.73047C6.87122 8.45576 6.7636 8.11237 6.7636 7.7003C6.7636 6.34961 7.76056 5.67428 9.75453 5.67428C10.4796 5.67428 11.2047 5.7773 11.9298 5.98334C12.6548 6.18937 13.3233 6.42974 13.935 6.70446C14.5468 6.97918 15.0566 7.24244 15.4645 7.49426ZM51.9298 25.591C50.4116 25.591 49.0578 25.3392 47.8682 24.8356C46.6786 24.3319 45.676 23.6509 44.8603 22.7924C44.0446 21.9339 43.4271 20.9381 43.0079 19.8049C42.5887 18.6717 42.3792 17.487 42.3792 16.2508C42.3792 15.0145 42.5887 13.8298 43.0079 12.6966C43.4271 11.5634 44.0446 10.5676 44.8603 9.70913C45.676 8.85065 46.6786 8.16387 47.8682 7.64878C49.0578 7.13369 50.4116 6.87615 51.9298 6.87615C53.4479 6.87615 54.7961 7.13369 55.9743 7.64878C57.1526 8.16387 58.1495 8.85065 58.9653 9.70913C59.781 10.5676 60.4041 11.5634 60.8346 12.6966C61.2651 13.8298 61.4804 15.0145 61.4804 16.2508C61.4804 17.487 61.2708 18.6717 60.8516 19.8049C60.4324 20.9381 59.815 21.9339 58.9992 22.7924C58.1835 23.6509 57.1809 24.3319 55.9913 24.8356C54.8017 25.3392 53.4479 25.591 51.9298 25.591ZM49.0747 19.6675C48.327 18.809 47.9531 17.6701 47.9531 16.2508C47.9531 15.564 48.0551 14.9287 48.259 14.345C48.4629 13.7612 48.7405 13.2633 49.0917 12.8512C49.4429 12.4391 49.8621 12.1186 50.3493 11.8897C50.8364 11.6608 51.3632 11.5463 51.9297 11.5463C53.0626 11.5463 54.003 11.9755 54.7507 12.834C55.4984 13.6925 55.8723 14.8314 55.8723 16.2508C55.8723 16.9376 55.7703 17.5728 55.5664 18.1566C55.3625 18.7404 55.0849 19.2383 54.7337 19.6504C54.3825 20.0624 53.969 20.3829 53.4932 20.6119C53.0173 20.8408 52.4962 20.9553 51.9297 20.9553C50.7741 20.9553 49.8225 20.526 49.0747 19.6675ZM75.7193 11.924C74.4051 11.9469 73.2156 12.1644 72.1506 12.5765C71.0857 12.9885 70.3153 13.6066 69.8394 14.4308V25.2476H64.4014V7.21953H69.3976V10.8595C70.0094 9.64617 70.7968 8.69612 71.7598 8.00934C72.7227 7.32255 73.748 6.96771 74.8357 6.94482H75.3795C75.4928 6.94482 75.606 6.95627 75.7193 6.97916V11.924ZM87.2225 25.1789C88.1855 24.9042 89.0409 24.6066 89.7886 24.2861L88.735 19.925C88.4178 20.0853 88.0439 20.2341 87.6134 20.3715C87.1829 20.5088 86.7637 20.5775 86.3559 20.5775C85.9027 20.5775 85.5288 20.4459 85.2342 20.1826C84.9397 19.9193 84.7924 19.4901 84.7924 18.8949V11.3746H88.4291V7.21953H84.7924V1.48488H79.3543V7.21953H77.0771V11.3746H79.3543V20.7835C79.3543 21.6535 79.4846 22.3975 79.7452 23.0156C80.0058 23.6337 80.3626 24.1316 80.8158 24.5093C81.269 24.8871 81.7958 25.1618 82.3963 25.3335C82.9967 25.5052 83.6368 25.591 84.3166 25.591C85.2909 25.591 86.2595 25.4537 87.2225 25.1789ZM92.0638 0.179993H97.5019V18.8262C97.5019 20.1998 98.0797 20.8865 99.2353 20.8865C99.5072 20.8865 99.8074 20.8465 100.136 20.7664C100.465 20.6862 100.765 20.566 101.037 20.4058L101.75 24.5265C101.071 24.847 100.289 25.0988 99.4052 25.282C98.5215 25.4651 97.6945 25.5567 96.9241 25.5567C95.3606 25.5567 94.1598 25.1446 93.3214 24.3205C92.483 23.4963 92.0638 22.3059 92.0638 20.7492V0.179993ZM104.79 28.3038C104.394 28.2351 103.969 28.1206 103.516 27.9604V32.6649C103.992 32.848 104.462 32.9796 104.926 33.0598C105.391 33.1399 105.85 33.18 106.303 33.18C107.98 33.18 109.43 32.7164 110.653 31.7892C111.877 30.8621 112.727 29.6545 113.202 28.1664L120 7.21951H114.902L111.333 20.5431L107.187 7.21951H101.578L108.376 25.2476C108.082 26.438 107.753 27.2622 107.39 27.72C107.028 28.1779 106.518 28.4068 105.861 28.4068C105.544 28.4068 105.187 28.3725 104.79 28.3038Z" fill="white"/>
</svg>
