<svg width="482" height="398" viewBox="0 0 482 398" fill="none" xmlns="http://www.w3.org/2000/svg">
<path d="M178.317 159.334C178.317 159.334 161.717 156.387 157.067 168.003C152.417 179.619 157.067 219.736 157.067 219.736L219 264L178.317 159.334Z" fill="#3F3D56"/>
<path d="M256.202 336.727L231.647 343.735C228.079 344.744 224.337 342.783 223.275 339.349C222.228 335.911 224.262 332.303 227.825 331.28L252.347 324.266C255.912 323.256 259.654 325.213 260.719 328.645C261.777 332.078 259.758 335.69 256.202 336.727Z" fill="#2BD0D0"/>
<circle cx="255" cy="352" r="11" fill="#25233A"/>
<circle cx="253.5" cy="354.5" r="5.5" fill="#3F3D56"/>
<circle cx="210" cy="341" r="11" fill="#25233A"/>
<path d="M214 341.5C214 344.538 211.538 347 208.5 347C205.462 347 203 344.538 203 341.5C203 338.462 205.462 336 208.5 336C211.538 336 214 338.462 214 341.5Z" fill="url(#paint0_linear_0_803)"/>
<circle cx="207" cy="356" r="11" fill="#25233A"/>
<path d="M216 356.5C216 359.538 213.538 362 210.5 362C207.462 362 205 359.538 205 356.5C205 353.462 207.462 351 210.5 351C213.538 351 216 353.462 216 356.5Z" fill="#3F3D56"/>
<path d="M257.085 347.874L206.298 337.828C202.724 337.111 200.414 333.698 201.13 330.192C201.862 326.692 205.341 324.428 208.915 325.126L259.702 335.153C263.276 335.87 265.586 339.284 264.87 342.79C264.147 346.297 260.666 348.571 257.085 347.874Z" fill="#2BD0D0"/>
<path d="M226 267H240V325.999C240 329.866 236.867 333 233.003 333C229.139 333 226.007 329.866 226.007 325.999V267H226Z" fill="#2BD0D0"/>
<path d="M231.187 343.708L206.65 350.733C203.082 351.747 199.336 349.784 198.275 346.345C197.228 342.904 199.262 339.295 202.823 338.271L227.36 331.266C230.924 330.255 234.664 332.214 235.728 335.647C236.767 339.082 234.739 342.681 231.187 343.708Z" fill="#2BD0D0"/>
<path d="M236 343.26L232.875 343.811C231.943 343.974 230.968 344.033 230 343.983L231.305 343.755C232.212 343.598 233.063 343.342 233.812 343L236 343.26Z" fill="url(#paint1_linear_0_803)"/>
<path d="M261 329.738C260.999 331.293 260.483 332.799 259.54 334L239 329.65C239.517 328.913 239.89 328.077 240.098 327.188L252.752 323.265C254.398 322.768 256.165 322.976 257.665 323.844C259.165 324.711 260.274 326.168 260.748 327.892C260.912 328.492 260.997 329.114 261 329.738Z" fill="url(#paint2_linear_0_803)"/>
<path opacity="0.31" d="M225.221 328.103C225.074 327.585 225 327.055 225 326.523V268H230.943V331.071C230.884 331.38 230.904 331.697 231 332C230.1 331.685 229.135 331.511 228.155 331.489C227.464 331.449 226.77 331.449 226.079 331.489L226.504 331.389C226.766 331.349 225.564 329.298 225.221 328.103Z" fill="url(#paint3_linear_0_803)"/>
<path opacity="0.31" d="M262.289 346.8C261.319 347.323 260.228 347.597 259.119 347.596C258.673 347.595 258.228 347.552 257.79 347.467L235.382 343.06L233.515 342.697C232.878 343.175 232.154 343.533 231.382 343.752L230.272 344.069L207.247 350.735C203.733 351.742 200.045 349.792 199 346.373C200.997 348.178 204.029 348.346 206.223 346.774C209.034 344.878 220.225 342.031 226.564 340.517C229.56 339.819 231.852 337.468 232.412 334.518C232.428 334.344 232.454 334.171 232.492 334C233.548 335.113 235.489 336.362 238.997 337.423C247.636 340.012 261.664 341.727 261.664 341.727C261.664 341.727 264.196 344.147 262.289 346.8Z" fill="url(#paint4_linear_0_803)"/>
<path d="M264 345C263.472 345.778 262.793 346.456 262 347C262.538 346.479 263.229 345.785 264 345Z" fill="url(#paint5_linear_0_803)"/>
<path d="M226.299 327.559C226.577 328.729 227.163 329.809 228 330.688C227.791 330.728 227.575 330.781 227.359 330.84L206.088 337C202.817 336.187 200.662 333.135 201.044 329.854C201.425 326.574 204.225 324.073 207.6 324C208.053 324.001 208.505 324.045 208.949 324.132L226.299 327.559Z" fill="url(#paint6_linear_0_803)"/>
<path d="M259 46.4074C259 46.4074 258.724 25.6021 241.925 27.3961C225.126 29.1901 226.414 22.3019 219.238 23.0583C212.063 23.8147 203.727 30.8436 206.121 39.5258C208.516 48.2081 199.789 50.1494 194.057 56.7364C188.324 63.3234 195.406 68.7122 205.063 75.152C214.72 81.5917 204.463 79.9249 210.188 90.1066C215.914 100.288 235.295 87.2817 235.295 87.2817L259 46.4074Z" fill="#503164"/>
<path d="M122.664 391.601L134.393 392V298.255C134.393 298.255 134.984 274.014 157.846 271.582C180.707 269.151 388.042 239.116 388.042 239.116C388.042 239.116 396.26 238.246 400.993 254.017C405.726 269.788 410.333 331.804 410.333 331.804L473.973 340.381C473.973 340.381 475.652 230.832 452.671 224.786C429.69 218.741 129.149 249.546 129.149 249.546C129.149 249.546 106.858 365.898 122.664 391.601Z" fill="#2BD0D0"/>
<path opacity="0.197289" d="M122.664 391.601L134.393 392V298.255C134.393 298.255 134.984 274.014 157.846 271.582C180.707 269.151 388.042 239.116 388.042 239.116C388.042 239.116 396.26 238.246 400.993 254.017C405.726 269.788 410.333 331.804 410.333 331.804L473.973 340.381C473.973 340.381 475.652 230.832 452.671 224.786C429.69 218.741 129.149 249.546 129.149 249.546C129.149 249.546 106.858 365.898 122.664 391.601Z" fill="url(#paint7_linear_0_803)"/>
<path d="M62 260.784C62 260.784 67.744 229.028 108.144 220.705L393.327 188.062C393.327 188.062 421.323 186.902 434.131 194.649C446.939 202.395 465.219 208.817 472.714 243.872C480.209 278.928 482 338.814 482 338.814L474.91 339.914C474.91 339.914 464.562 231.474 453.599 224.608C442.635 217.743 146.196 259.863 146.196 259.863C146.196 259.863 125.635 263.951 123.844 294.395C122.053 324.838 123.844 391 123.844 391L62 366.057V260.784Z" fill="#2BD0D0"/>
<path opacity="0.19" d="M355.425 200.844C340.663 198.944 325.781 197.568 310.906 198.125C299.727 198.557 288.62 200.09 277.534 201.617L179.759 215.12C178.1 215.349 176.209 215.723 175.38 217.164C173.787 219.916 177.529 222.628 180.561 223.676C213.071 234.932 247.804 246.332 281.269 238.306C296.569 234.637 310.78 227.018 326.299 224.371C341.817 221.724 357.747 224.161 373.232 221.665C387.789 219.32 401.649 212.656 416.404 212.591C420.929 212.591 425.587 213.168 429.879 211.752C434.172 210.337 437.967 206.013 436.779 201.702C422.926 201.224 407.375 198.695 393.787 201.44C380.338 204.152 368.893 200.844 355.425 200.844Z" fill="url(#paint8_linear_0_803)"/>
<path d="M267 216.38L267.57 218.494C267.57 218.494 284.451 228.667 284.345 228.995C284.239 229.323 354.369 212.756 354.369 212.756L356 208L267 216.38Z" fill="#2BD0D0"/>
<path d="M267 216.38L267.57 218.494C267.57 218.494 284.451 228.667 284.345 228.995C284.239 229.323 354.369 212.756 354.369 212.756L356 208L267 216.38Z" fill="url(#paint9_linear_0_803)"/>
<path d="M268 216.364L330.107 203L356 208.054L285.442 225L268 216.364Z" fill="#2BD0D0"/>
<path d="M268 216.364L330.107 203L356 208.054L285.442 225L268 216.364Z" fill="url(#paint10_linear_0_803)"/>
<path d="M247.832 227.484L262.289 227.996C262.289 227.996 265.961 228.224 266.91 225.279C267.859 222.334 261.02 216.119 260.287 216.002C259.554 215.884 240.528 221.221 243.27 226.558L247.832 227.484Z" fill="#2BD0D0"/>
<path d="M247.832 227.484L262.289 227.996C262.289 227.996 265.961 228.224 266.91 225.279C267.859 222.334 261.02 216.119 260.287 216.002C259.554 215.884 240.528 221.221 243.27 226.558L247.832 227.484Z" fill="url(#paint11_linear_0_803)"/>
<path d="M79 373.056L71.9416 394.733C51.4688 402.084 34.0624 394.733 34.0624 394.733L29 372C29 372 54.5351 380.56 79 373.056Z" fill="#2BD0D0"/>
<path d="M79 373.056L71.9416 394.733C51.4688 402.084 34.0624 394.733 34.0624 394.733L29 372C29 372 54.5351 380.56 79 373.056Z" fill="url(#paint12_linear_0_803)"/>
<path d="M87 353L84.7159 369.943L78.9296 372.951C54.2815 380.372 28.5146 371.913 28.5146 371.913L24.0722 368.63L22 353H87Z" fill="#2BD0D0"/>
<path d="M87 353L84.7159 369.943L78.9296 372.951C54.2815 380.372 28.5146 371.913 28.5146 371.913L24.0722 368.63L22 353H87Z" fill="url(#paint13_linear_0_803)"/>
<ellipse cx="54.5" cy="352" rx="32.5" ry="6" fill="#2BD0D0"/>
<ellipse cx="54.5" cy="352" rx="32.5" ry="6" fill="url(#paint14_linear_0_803)"/>
<path d="M39.6413 222.03C36.4587 220.515 33.0383 219.372 30.2849 217.159C24.7383 212.661 23.3319 204.912 21.5953 197.962C19.8587 191.011 16.4978 183.369 9.65051 181.375C7.08854 180.638 4.08418 180.93 2.1363 182.764C0.0827689 184.698 -0.33322 187.874 0.228035 190.679C0.789289 193.483 2.15611 195.995 3.21259 198.653C5.67965 204.826 6.43061 211.559 5.38497 218.13C4.51998 223.519 2.45324 228.981 3.78045 234.264C6.03207 243.228 17.2506 248.485 17.5609 257.721C17.7722 263.954 12.6747 269.722 13.8302 275.856C14.682 280.394 18.8353 283.936 19.0598 288.548C19.3107 293.778 14.3981 298.203 14.6358 303.433C14.8735 308.663 20.0634 312.158 23.4508 316.272C26.2905 319.726 27.979 323.992 28.2776 328.465C28.4558 331.256 28.0993 334.147 29.0039 336.792C29.6642 338.725 30.9848 340.367 32.0082 342.108C33.1374 343.988 33.9891 346.022 35.3494 347.763C38.8482 352.201 44.6824 354.044 50.074 352.414C51.1239 345.464 50.2061 338.373 50.4966 331.349C51.0711 317.74 56.1884 304.025 52.9133 290.814C51.7116 285.97 49.4005 281.371 48.9911 276.401C48.628 271.962 49.8033 267.563 50.6221 263.184C52.3124 254.14 52.286 244.79 51.5927 235.646C51.0447 228.39 45.9736 225.047 39.6413 222.03Z" fill="#2BD0D0"/>
<path d="M59.7518 257.767C59.6986 263.829 61.0819 270.096 59.14 275.852C57.6703 280.214 54.4382 283.786 52.769 288.075C48.9184 297.974 54.099 309.075 53.0416 319.644C52.6027 323.999 51.1064 328.182 50.162 332.458C48.9892 337.871 48.7017 343.438 49.3108 348.943C49.1819 351.015 50.5994 352.865 52.636 353.285C55.8944 354.526 59.2699 355.435 62.7112 356C61.5478 349.591 62.7731 342.979 66.1561 337.41C71.4298 328.78 81.6779 322.964 83.5866 313.051C84.8767 306.339 81.8708 299.527 82.0836 292.696C82.2368 288.15 83.8034 283.765 86.5659 280.148C89.0465 276.921 92.4049 274.425 94.7126 271.079C100.259 263.012 98.5298 252.23 96.8806 242.584C95.2313 232.937 94.2736 221.836 100.791 214.527C102.853 212.216 105.539 210.483 107.408 208.014C111.571 202.51 110.52 194.031 105.679 189.112C100.838 184.192 93.0433 182.831 86.4595 184.996C83.6823 185.813 81.2311 187.477 79.4501 189.756C76.1249 194.47 77.455 200.91 78.8648 206.513C80.0951 211.38 81.086 216.996 79.4035 221.903C78.1466 225.554 74.9611 227.533 72.2544 230.075C64.5031 237.235 59.9917 247.227 59.7518 257.767Z" fill="#2BD0D0"/>
<path d="M53.0622 311.522C52.1243 318.115 50.7703 324.761 50.4929 331.373V332.038C50.478 332.202 50.4402 332.363 50.3806 332.517C49.209 337.934 48.9168 343.507 49.5153 349.018C49.5508 349.911 49.776 350.786 50.1758 351.584C50.1428 351.863 50.1031 352.135 50.0635 352.414C44.6702 354.044 38.8341 352.201 35.3342 347.762C34.0131 346.021 33.1215 343.987 31.992 342.107C30.9352 340.359 29.6472 338.717 28.9867 336.79C28.0818 334.132 28.4384 331.254 28.2601 328.463C27.9615 323.989 26.2724 319.722 23.4318 316.267C20.0434 312.18 14.8452 308.751 14.614 303.434C14.3828 298.117 19.2904 293.778 19.0394 288.547C18.8148 283.935 14.6602 280.393 13.8082 275.854C12.6523 269.719 17.7712 263.951 17.5401 257.717C17.2296 248.479 6.00756 243.222 3.75523 234.257C2.43421 228.973 4.495 223.51 5.36026 218.121C6.41093 211.558 5.66893 204.832 3.21361 198.661C2.15679 196.003 0.78954 193.498 0.228107 190.686C-0.333326 187.875 0.0827951 184.705 2.13698 182.764C4.11851 180.93 7.0908 180.638 9.65357 181.375C16.5097 183.369 19.8584 191.039 21.6022 197.99C23.3459 204.942 24.7462 212.684 30.2945 217.19C33.0356 219.417 36.4702 220.546 39.6539 222.062C45.9948 225.079 51.0675 228.422 51.6091 235.613C52.2696 244.757 52.3291 254.108 50.6382 263.153C49.8191 267.533 48.6566 271.932 49.0067 276.372C49.3568 280.811 51.2789 285.012 52.5338 289.318C52.6725 289.803 52.8112 290.295 52.9301 290.787C54.5946 297.626 54.0596 304.544 53.0622 311.522Z" fill="#30C59B"/>
<path d="M49.7185 351C49.421 350.229 49.2496 349.38 49.2157 348.512C48.7851 343.152 49.0001 337.733 49.8525 332.465C49.8765 332.31 49.9052 332.155 49.9339 332C49.7616 338.346 50.3074 344.744 49.7185 351Z" fill="url(#paint15_linear_0_803)"/>
<path d="M107.393 208.014C105.522 210.483 102.831 212.216 100.766 214.527C94.2387 221.83 95.1978 232.937 96.8496 242.584C98.5014 252.23 100.233 263.012 94.6783 271.079C92.3671 274.398 89.0035 276.921 86.5191 280.148C83.7523 283.765 82.1834 288.15 82.0299 292.696C81.8168 299.527 84.8274 306.339 83.5352 313.051C81.6236 322.964 71.3598 328.793 66.078 337.41C62.7025 342.984 61.4851 349.595 62.6545 356C59.2166 355.435 55.8447 354.526 52.5904 353.285C51.7003 353.021 50.893 352.534 50.2459 351.87C50.1541 351.763 50.0717 351.647 49.9995 351.525C49.5866 350.735 49.3482 349.866 49.3001 348.976C48.701 343.469 49.0002 337.902 50.186 332.491C50.2193 332.331 50.2592 332.172 50.2992 332.013C51.245 327.903 52.6437 323.873 53.07 319.677C53.2966 316.957 53.243 314.221 52.9101 311.511C53.9159 304.54 54.4554 297.629 52.7569 290.843C52.637 290.352 52.4972 289.861 52.3573 289.376C52.4839 288.951 52.6304 288.526 52.7969 288.108C54.4687 283.819 57.7057 280.247 59.1777 275.885C61.1159 270.129 59.7372 263.862 59.7904 257.8C59.877 247.331 64.6127 237.219 72.219 230.075C74.9298 227.533 78.1202 225.554 79.3791 221.903C81.0642 216.996 80.0451 211.38 78.8395 206.513C77.4209 200.91 76.0754 194.47 79.4257 189.756C81.0908 187.419 83.715 185.899 86.4459 184.996C93.0131 182.831 100.853 184.192 105.695 189.112C110.537 194.031 111.563 202.543 107.393 208.014Z" fill="#30C59B"/>
<path d="M225.573 103.146C225.573 103.146 197.756 107.446 184.889 138.123C172.022 168.8 178.713 206.806 178.938 210.15C179.163 213.494 218.366 228 229.573 228C240.781 228 243.115 216.771 243.115 216.771L223.312 208.338L283.482 201.389H294.286L288.335 211.421C288.335 211.421 300.078 212.652 307.927 212.932C315.775 213.213 321.105 197.691 321.984 189.973C322.863 182.256 287.317 114.515 282.007 110.503C276.698 106.49 262.29 96.6859 225.573 103.146Z" fill="#2BD0D0"/>
<path d="M258.392 45.7763C258.392 45.7763 263.424 48.6061 262.971 57.7613C262.519 66.9165 259.682 80.6926 256.819 84.2614C253.955 87.8303 243.94 89.2285 243.94 89.2285C243.94 89.2285 249.403 102.206 253.469 105.555C257.535 108.904 249.383 121.242 241.454 117.194C233.526 113.145 224.334 102.978 224.334 102.978C224.334 102.978 230.946 90.7333 228.71 84.2881C226.475 77.8428 217.938 55.2245 224.334 49.0455C230.73 42.8666 244.52 34.011 258.392 45.7763Z" fill="url(#paint16_linear_0_803)"/>
<path opacity="0.25" d="M214.334 147L210 201.055L223.238 208L234 206.122L220.572 189.618L214.334 147Z" fill="white"/>
<path opacity="0.25" d="M284 144C284 144 301.909 186.077 293.97 201L287.854 199.839L284 144Z" fill="white"/>
<path d="M235.522 215.045C235.522 215.045 228.756 220.82 231.776 225.312C234.796 229.803 238.401 229.675 241.407 227.667C244.413 225.658 250.318 220.891 257.353 223.079C264.388 225.267 266.097 226.659 266.097 226.659C266.097 226.659 269.802 224.343 268.841 222.02C267.879 219.697 260.521 212.171 258.389 211.195C256.257 210.22 247.406 213.216 247.406 213.216C247.406 213.216 240.903 211.458 235.522 215.045Z" fill="url(#paint17_linear_0_803)"/>
<path d="M295.191 202.598C295.191 202.598 288.806 203.357 287.193 207.555C285.58 211.753 285 212.264 285 212.264C285 212.264 288.606 212.955 290.106 211.001C291.605 209.047 293.165 209.868 293.165 209.868L292.718 212.375C292.718 212.375 302.516 213.852 306.942 212.264C311.367 210.676 313.267 208.812 313.267 208.812L315 204.572C315 204.572 310.821 201.541 307.668 201.072C304.516 200.602 295.191 202.598 295.191 202.598Z" fill="url(#paint18_linear_0_803)"/>
<path d="M328.893 247C328.893 247 350.827 263.687 348.877 286.259C346.928 308.831 344.064 342.346 344.064 342.346C344.064 342.346 335.218 346.068 329.357 342.346C323.495 338.624 319.946 287.697 317.042 282.833C314.138 277.969 296.667 256.042 278 254.154L328.893 247Z" fill="#25233A"/>
<path d="M219 263.058C219 263.058 229.444 272.953 248.062 276.06C266.681 279.167 275.359 281.76 281.049 297.665C286.739 313.57 292.197 347.802 293.984 351.628C295.77 355.454 303.366 353.502 303.366 353.502C303.366 353.502 307.662 348.607 307.662 321.388C307.662 283.442 310.317 275.664 300.749 266.132C291.181 256.599 282.477 254 282.477 254L219 263.058Z" fill="#3F3D56"/>
<path d="M294 353L295.82 367.197H299.228C299.228 367.197 321.176 368.384 321.864 367.872C322.552 367.359 320.807 356.629 312.492 356.932C304.176 357.236 303.631 354.909 303.631 354.909L294 353Z" fill="#25233A"/>
<path d="M331 343.156L334.518 357L372.955 351.788C372.955 351.788 374.308 342.695 362.132 343.597C358.918 343.831 356.524 346.062 352.661 346.082C348.798 346.102 345.098 344.539 343.15 342L331 343.156Z" fill="#25233A"/>
<path d="M461.804 169.337L319.561 176.991C316.121 177.172 313.185 174.52 313 171.065C313 170.958 313 170.845 313 170.739V69.4729C313.003 65.372 316.267 62.0249 320.348 61.9382L462.009 59.0014C463.827 58.9641 465.584 59.6537 466.895 60.9185C468.206 62.1833 468.964 63.9197 469 65.7454V161.716C468.995 165.772 465.836 169.118 461.804 169.337Z" fill="#2BD0D0"/>
<path d="M469.804 169.337L327.555 176.992C324.115 177.169 321.182 174.514 321 171.058C321 170.952 321 170.846 321 170.739V69.4727C320.996 65.3715 324.26 62.0213 328.342 61.938L470.022 59.0012C473.799 58.9308 476.92 61.9445 477 65.7386V161.716C476.995 165.773 473.836 169.119 469.804 169.337Z" fill="#2BD0D0"/>
<path d="M469.804 169.337L327.555 176.992C324.115 177.169 321.182 174.514 321 171.058C321 170.952 321 170.846 321 170.739V69.4727C320.996 65.3715 324.26 62.0213 328.342 61.938L470.022 59.0012C473.799 58.9308 476.92 61.9445 477 65.7386V161.716C476.995 165.773 473.836 169.119 469.804 169.337Z" fill="url(#paint19_linear_0_803)"/>
<path d="M427.773 208.138L391.478 212C391.478 212 380.425 209.77 381.023 208.138C381.622 206.505 393.179 204.933 393.179 204.933V139.129C393.08 138.983 391.558 137.045 387.39 135.81C386.583 135.571 385.762 135.38 384.931 135.24C384.217 135.135 383.523 134.925 382.871 134.616C380.392 133.335 383.13 131.105 386.978 131.006C387.581 130.985 388.184 131.02 388.78 131.112H416.693C416.693 131.112 427.261 134.085 427.773 148.923C428.284 163.762 427.773 208.138 427.773 208.138Z" fill="#3A3054"/>
<path d="M398 208.277L391.322 212C391.322 212 380.434 209.77 381.023 208.137C381.612 206.505 393.018 204.932 393.018 204.932V139.123C392.88 138.971 391.211 137.225 387.315 135.805C385.865 135.288 384.376 134.888 382.863 134.61C380.421 133.329 383.118 131.1 386.909 131C390.137 131.445 396.494 135.028 396.907 137.073C397.319 139.117 398 208.277 398 208.277Z" fill="#51466B"/>
<path d="M263 346C262.119 347.001 261.709 347.371 262.23 346.547C262.5 346.388 262.757 346.205 263 346Z" fill="url(#paint20_linear_0_803)"/>
<defs>
<linearGradient id="paint0_linear_0_803" x1="203" y1="347" x2="214" y2="347" gradientUnits="userSpaceOnUse">
<stop stop-color="#183866"/>
<stop offset="1" stop-color="#1A7FC1"/>
</linearGradient>
<linearGradient id="paint1_linear_0_803" x1="229.992" y1="344.001" x2="236" y2="344.001" gradientUnits="userSpaceOnUse">
<stop/>
<stop offset="0.99" stop-opacity="0.01"/>
</linearGradient>
<linearGradient id="paint2_linear_0_803" x1="263.916" y1="64.8313" x2="276.23" y2="87.8656" gradientUnits="userSpaceOnUse">
<stop/>
<stop offset="0.99" stop-opacity="0.01"/>
</linearGradient>
<linearGradient id="paint3_linear_0_803" x1="289.529" y1="-139.56" x2="244.041" y2="-139.669" gradientUnits="userSpaceOnUse">
<stop/>
<stop offset="0.99" stop-opacity="0.01"/>
</linearGradient>
<linearGradient id="paint4_linear_0_803" x1="357.142" y1="56.9992" x2="346.535" y2="7.89347" gradientUnits="userSpaceOnUse">
<stop/>
<stop offset="0.99" stop-opacity="0.01"/>
</linearGradient>
<linearGradient id="paint5_linear_0_803" x1="309.847" y1="11.3179" x2="305.879" y2="10.0651" gradientUnits="userSpaceOnUse">
<stop/>
<stop offset="0.99" stop-opacity="0.01"/>
</linearGradient>
<linearGradient id="paint6_linear_0_803" x1="258.106" y1="56.5083" x2="241.633" y2="75.4004" gradientUnits="userSpaceOnUse">
<stop/>
<stop offset="0.99" stop-opacity="0.01"/>
</linearGradient>
<linearGradient id="paint7_linear_0_803" x1="524.505" y1="-20.4512" x2="33.0621" y2="-127.28" gradientUnits="userSpaceOnUse">
<stop/>
<stop offset="1" stop-opacity="0.01"/>
</linearGradient>
<linearGradient id="paint8_linear_0_803" x1="212.123" y1="201.726" x2="474.119" y2="201.726" gradientUnits="userSpaceOnUse">
<stop stop-color="#183866"/>
<stop offset="1" stop-color="#1A7FC1"/>
</linearGradient>
<linearGradient id="paint9_linear_0_803" x1="75.4557" y1="182.212" x2="76.9992" y2="289.94" gradientUnits="userSpaceOnUse">
<stop/>
<stop offset="0.99" stop-opacity="0.01"/>
</linearGradient>
<linearGradient id="paint10_linear_0_803" x1="197.154" y1="207.814" x2="206.217" y2="254.211" gradientUnits="userSpaceOnUse">
<stop/>
<stop offset="0.99" stop-opacity="0.01"/>
</linearGradient>
<linearGradient id="paint11_linear_0_803" x1="237.493" y1="217.691" x2="236.892" y2="236.145" gradientUnits="userSpaceOnUse">
<stop/>
<stop offset="0.99" stop-opacity="0.01"/>
</linearGradient>
<linearGradient id="paint12_linear_0_803" x1="126.11" y1="4.95361" x2="82.3712" y2="-1.29062" gradientUnits="userSpaceOnUse">
<stop/>
<stop offset="0.99" stop-opacity="0.01"/>
</linearGradient>
<linearGradient id="paint13_linear_0_803" x1="133.367" y1="34.1729" x2="98.5351" y2="24.6642" gradientUnits="userSpaceOnUse">
<stop/>
<stop offset="0.99" stop-opacity="0.01"/>
</linearGradient>
<linearGradient id="paint14_linear_0_803" x1="-192.124" y1="327.797" x2="-192.764" y2="420.661" gradientUnits="userSpaceOnUse">
<stop/>
<stop offset="0.99" stop-opacity="0.01"/>
</linearGradient>
<linearGradient id="paint15_linear_0_803" x1="78.2068" y1="21.7284" x2="74.684" y2="21.7885" gradientUnits="userSpaceOnUse">
<stop/>
<stop offset="0.99" stop-opacity="0.01"/>
</linearGradient>
<linearGradient id="paint16_linear_0_803" x1="221.984" y1="118.009" x2="262.998" y2="118.009" gradientUnits="userSpaceOnUse">
<stop stop-color="#ECC4D7"/>
<stop offset="0.42" stop-color="#EFD4D1"/>
<stop offset="1" stop-color="#F2EAC9"/>
</linearGradient>
<linearGradient id="paint17_linear_0_803" x1="268.632" y1="190.608" x2="306.631" y2="190.608" gradientUnits="userSpaceOnUse">
<stop stop-color="#ECC4D7"/>
<stop offset="0.42" stop-color="#EFD4D1"/>
<stop offset="1" stop-color="#F2EAC9"/>
</linearGradient>
<linearGradient id="paint18_linear_0_803" x1="322.292" y1="196.852" x2="352.292" y2="196.852" gradientUnits="userSpaceOnUse">
<stop stop-color="#ECC4D7"/>
<stop offset="0.42" stop-color="#EFD4D1"/>
<stop offset="1" stop-color="#F2EAC9"/>
</linearGradient>
<linearGradient id="paint19_linear_0_803" x1="450.177" y1="160.011" x2="326.849" y2="303.362" gradientUnits="userSpaceOnUse">
<stop stop-color="#362958" stop-opacity="0.500601"/>
<stop offset="1" stop-color="#34313D" stop-opacity="0.01"/>
</linearGradient>
<linearGradient id="paint20_linear_0_803" x1="302.125" y1="3.16521" x2="300.959" y2="2.73391" gradientUnits="userSpaceOnUse">
<stop/>
<stop offset="0.99" stop-opacity="0.01"/>
</linearGradient>
</defs>
</svg>
